<svg xmlns="http://www.w3.org/2000/svg" xmlns:xlink="http://www.w3.org/1999/xlink" width="500" zoomAndPan="magnify" viewBox="0 0 375 374.999991" height="500" preserveAspectRatio="xMidYMid meet" version="1.0"><defs><clipPath id="5319f02d6c"><path d="M 0 20.359375 L 375 20.359375 L 375 54 L 0 54 Z M 0 20.359375 " clip-rule="nonzero"/></clipPath><clipPath id="e7ba2e26af"><path d="M 0.046875 238.433594 L 374.953125 238.433594 L 374.953125 271.609375 L 0.046875 271.609375 Z M 0.046875 238.433594 " clip-rule="nonzero"/></clipPath><clipPath id="c51abda3dd"><path d="M 189.59375 20.359375 L 312 20.359375 L 312 365.589844 L 189.59375 365.589844 Z M 189.59375 20.359375 " clip-rule="nonzero"/></clipPath><clipPath id="a0d9e2ec21"><path d="M 312 46.671875 L 312 365.285156 L 250.796875 314.269531 L 189.59375 365.285156 L 189.59375 46.671875 C 189.59375 32.132812 196.9375 20.359375 205.503906 20.359375 L 296.085938 20.359375 C 304.65625 20.359375 312 31.480469 312 47.527344 Z M 312 46.671875 " clip-rule="nonzero"/></clipPath><clipPath id="81b5225ebf"><path d="M 0.59375 0.359375 L 123 0.359375 L 123 345.519531 L 0.59375 345.519531 Z M 0.59375 0.359375 " clip-rule="nonzero"/></clipPath><clipPath id="fe87df721a"><path d="M 123 26.671875 L 123 345.285156 L 61.796875 294.269531 L 0.59375 345.285156 L 0.59375 26.671875 C 0.59375 12.132812 7.9375 0.359375 16.503906 0.359375 L 107.085938 0.359375 C 115.65625 0.359375 123 11.480469 123 27.527344 Z M 123 26.671875 " clip-rule="nonzero"/></clipPath><clipPath id="3953cc55fc"><rect x="0" width="123" y="0" height="346"/></clipPath></defs><path fill="#f6f8ef" d="M 358.566406 162.378906 L 16.433594 162.378906 C 7.382812 162.378906 0.046875 155.042969 0.046875 145.992188 C 0.046875 136.941406 7.382812 129.605469 16.433594 129.605469 L 358.566406 129.605469 C 367.621094 129.605469 374.953125 136.941406 374.953125 145.992188 C 374.953125 155.042969 367.621094 162.378906 358.566406 162.378906 " fill-opacity="1" fill-rule="nonzero"/><g clip-path="url(#5319f02d6c)"><path fill="#f6f8ef" d="M 358.566406 53.132812 L 16.433594 53.132812 C 7.382812 53.132812 0.046875 45.800781 0.046875 36.75 C 0.046875 27.695312 7.382812 20.363281 16.433594 20.363281 L 358.566406 20.363281 C 367.621094 20.363281 374.953125 27.695312 374.953125 36.75 C 374.953125 45.800781 367.621094 53.132812 358.566406 53.132812 " fill-opacity="1" fill-rule="nonzero"/></g><g clip-path="url(#e7ba2e26af)"><path fill="#f6f8ef" d="M 358.566406 271.625 L 16.433594 271.625 C 7.382812 271.625 0.046875 264.292969 0.046875 255.238281 C 0.046875 246.1875 7.382812 238.855469 16.433594 238.855469 L 358.566406 238.855469 C 367.621094 238.855469 374.953125 246.1875 374.953125 255.238281 C 374.953125 264.292969 367.621094 271.625 358.566406 271.625 " fill-opacity="1" fill-rule="nonzero"/></g><g clip-path="url(#c51abda3dd)"><g clip-path="url(#a0d9e2ec21)"><g transform="matrix(1, 0, 0, 1, 189, 20)"><g clip-path="url(#3953cc55fc)"><g clip-path="url(#81b5225ebf)"><g clip-path="url(#fe87df721a)"><path fill="#f6f8ef" d="M 0.59375 0.359375 L 123 0.359375 L 123 345.109375 L 0.59375 345.109375 Z M 0.59375 0.359375 " fill-opacity="1" fill-rule="nonzero"/></g></g></g></g></g></g></svg>