<svg xmlns="http://www.w3.org/2000/svg" xmlns:xlink="http://www.w3.org/1999/xlink" width="500" zoomAndPan="magnify" viewBox="0 0 375 374.999991" height="500" preserveAspectRatio="xMidYMid meet" version="1.0"><defs><clipPath id="7992c357ab"><path d="M 11 60.886719 L 361 60.886719 L 361 299 L 11 299 Z M 11 60.886719 " clip-rule="nonzero"/></clipPath><clipPath id="1236e4f25e"><path d="M 110 133 L 185 133 L 185 339.886719 L 110 339.886719 Z M 110 133 " clip-rule="nonzero"/></clipPath><clipPath id="9d79c7b424"><path d="M 244 162 L 278 162 L 278 268 L 244 268 Z M 244 162 " clip-rule="nonzero"/></clipPath><clipPath id="a0e2ab2924"><path d="M 164.125 181.125 L 336.789062 145.757812 L 358.011719 249.355469 L 185.347656 284.726562 Z M 164.125 181.125 " clip-rule="nonzero"/></clipPath><clipPath id="cebbcc6add"><path d="M 164.125 181.125 L 336.789062 145.757812 L 358.011719 249.355469 L 185.347656 284.726562 Z M 164.125 181.125 " clip-rule="nonzero"/></clipPath><clipPath id="dc9a4cb5a5"><path d="M 267 172 L 292 172 L 292 251 L 267 251 Z M 267 172 " clip-rule="nonzero"/></clipPath><clipPath id="79569a1ad4"><path d="M 164.125 181.125 L 336.789062 145.757812 L 358.011719 249.355469 L 185.347656 284.726562 Z M 164.125 181.125 " clip-rule="nonzero"/></clipPath><clipPath id="0968865486"><path d="M 164.125 181.125 L 336.789062 145.757812 L 358.011719 249.355469 L 185.347656 284.726562 Z M 164.125 181.125 " clip-rule="nonzero"/></clipPath><clipPath id="4320c82197"><path d="M 285 182 L 305 182 L 305 235 L 285 235 Z M 285 182 " clip-rule="nonzero"/></clipPath><clipPath id="8b67f822ce"><path d="M 164.125 181.125 L 336.789062 145.757812 L 358.011719 249.355469 L 185.347656 284.726562 Z M 164.125 181.125 " clip-rule="nonzero"/></clipPath><clipPath id="7476479d02"><path d="M 164.125 181.125 L 336.789062 145.757812 L 358.011719 249.355469 L 185.347656 284.726562 Z M 164.125 181.125 " clip-rule="nonzero"/></clipPath><clipPath id="1755b4512a"><path d="M 298 168 L 321 168 L 321 242 L 298 242 Z M 298 168 " clip-rule="nonzero"/></clipPath><clipPath id="f48d9410f8"><path d="M 164.125 181.125 L 336.789062 145.757812 L 358.011719 249.355469 L 185.347656 284.726562 Z M 164.125 181.125 " clip-rule="nonzero"/></clipPath><clipPath id="0e59b6c1c4"><path d="M 164.125 181.125 L 336.789062 145.757812 L 358.011719 249.355469 L 185.347656 284.726562 Z M 164.125 181.125 " clip-rule="nonzero"/></clipPath><clipPath id="189a490ceb"><path d="M 315 184 L 330 184 L 330 221 L 315 221 Z M 315 184 " clip-rule="nonzero"/></clipPath><clipPath id="efa0d17931"><path d="M 164.125 181.125 L 336.789062 145.757812 L 358.011719 249.355469 L 185.347656 284.726562 Z M 164.125 181.125 " clip-rule="nonzero"/></clipPath><clipPath id="dc666278e1"><path d="M 164.125 181.125 L 336.789062 145.757812 L 358.011719 249.355469 L 185.347656 284.726562 Z M 164.125 181.125 " clip-rule="nonzero"/></clipPath><clipPath id="9ab4e30bb6"><path d="M 329 187 L 340 187 L 340 213 L 329 213 Z M 329 187 " clip-rule="nonzero"/></clipPath><clipPath id="3b849435b8"><path d="M 164.125 181.125 L 336.789062 145.757812 L 358.011719 249.355469 L 185.347656 284.726562 Z M 164.125 181.125 " clip-rule="nonzero"/></clipPath><clipPath id="3e284db7a7"><path d="M 164.125 181.125 L 336.789062 145.757812 L 358.011719 249.355469 L 185.347656 284.726562 Z M 164.125 181.125 " clip-rule="nonzero"/></clipPath><clipPath id="bc021dbcbc"><path d="M 340 190 L 349 190 L 349 206 L 340 206 Z M 340 190 " clip-rule="nonzero"/></clipPath><clipPath id="345c437dac"><path d="M 164.125 181.125 L 336.789062 145.757812 L 358.011719 249.355469 L 185.347656 284.726562 Z M 164.125 181.125 " clip-rule="nonzero"/></clipPath><clipPath id="84d654e204"><path d="M 164.125 181.125 L 336.789062 145.757812 L 358.011719 249.355469 L 185.347656 284.726562 Z M 164.125 181.125 " clip-rule="nonzero"/></clipPath><clipPath id="2b73071d0d"><path d="M 230 179 L 255 179 L 255 259 L 230 259 Z M 230 179 " clip-rule="nonzero"/></clipPath><clipPath id="94cfa8b6b7"><path d="M 164.125 181.125 L 336.789062 145.757812 L 358.011719 249.355469 L 185.347656 284.726562 Z M 164.125 181.125 " clip-rule="nonzero"/></clipPath><clipPath id="694a53d53e"><path d="M 164.125 181.125 L 336.789062 145.757812 L 358.011719 249.355469 L 185.347656 284.726562 Z M 164.125 181.125 " clip-rule="nonzero"/></clipPath><clipPath id="cd1261deb7"><path d="M 217 196 L 237 196 L 237 248 L 217 248 Z M 217 196 " clip-rule="nonzero"/></clipPath><clipPath id="a098154575"><path d="M 164.125 181.125 L 336.789062 145.757812 L 358.011719 249.355469 L 185.347656 284.726562 Z M 164.125 181.125 " clip-rule="nonzero"/></clipPath><clipPath id="4b85dfa32c"><path d="M 164.125 181.125 L 336.789062 145.757812 L 358.011719 249.355469 L 185.347656 284.726562 Z M 164.125 181.125 " clip-rule="nonzero"/></clipPath><clipPath id="b7796bd7d0"><path d="M 201 188 L 224 188 L 224 262 L 201 262 Z M 201 188 " clip-rule="nonzero"/></clipPath><clipPath id="6758982953"><path d="M 164.125 181.125 L 336.789062 145.757812 L 358.011719 249.355469 L 185.347656 284.726562 Z M 164.125 181.125 " clip-rule="nonzero"/></clipPath><clipPath id="7ef1a52c7b"><path d="M 164.125 181.125 L 336.789062 145.757812 L 358.011719 249.355469 L 185.347656 284.726562 Z M 164.125 181.125 " clip-rule="nonzero"/></clipPath><clipPath id="113b1e3d43"><path d="M 192 209 L 207 209 L 207 246 L 192 246 Z M 192 209 " clip-rule="nonzero"/></clipPath><clipPath id="8eec3f1675"><path d="M 164.125 181.125 L 336.789062 145.757812 L 358.011719 249.355469 L 185.347656 284.726562 Z M 164.125 181.125 " clip-rule="nonzero"/></clipPath><clipPath id="09b71d666f"><path d="M 164.125 181.125 L 336.789062 145.757812 L 358.011719 249.355469 L 185.347656 284.726562 Z M 164.125 181.125 " clip-rule="nonzero"/></clipPath><clipPath id="1f36d9aa7e"><path d="M 181 217 L 193 217 L 193 244 L 181 244 Z M 181 217 " clip-rule="nonzero"/></clipPath><clipPath id="2336233e33"><path d="M 164.125 181.125 L 336.789062 145.757812 L 358.011719 249.355469 L 185.347656 284.726562 Z M 164.125 181.125 " clip-rule="nonzero"/></clipPath><clipPath id="6b1037cb54"><path d="M 164.125 181.125 L 336.789062 145.757812 L 358.011719 249.355469 L 185.347656 284.726562 Z M 164.125 181.125 " clip-rule="nonzero"/></clipPath><clipPath id="eee8648d2f"><path d="M 173 224 L 182 224 L 182 241 L 173 241 Z M 173 224 " clip-rule="nonzero"/></clipPath><clipPath id="a565f4cef1"><path d="M 164.125 181.125 L 336.789062 145.757812 L 358.011719 249.355469 L 185.347656 284.726562 Z M 164.125 181.125 " clip-rule="nonzero"/></clipPath><clipPath id="fb37aedd10"><path d="M 164.125 181.125 L 336.789062 145.757812 L 358.011719 249.355469 L 185.347656 284.726562 Z M 164.125 181.125 " clip-rule="nonzero"/></clipPath></defs><g clip-path="url(#7992c357ab)"><path fill="#eeebe2" d="M 11.484375 79.902344 C 19.910156 73.5625 28.339844 67.222656 36.765625 60.886719 C 46.601562 63.1875 57.917969 66.789062 69.878906 72.519531 C 101.378906 87.617188 121.105469 109.71875 131.761719 124.027344 C 150.234375 112.914062 173.976562 100.898438 202.777344 91.320312 C 247.316406 76.507812 286.925781 73.179688 315.183594 73.160156 C 330.363281 141.117188 345.546875 209.074219 360.726562 277.03125 C 298.234375 284.3125 235.742188 291.59375 173.253906 298.875 L 45.679688 217.96875 C 34.28125 171.945312 22.882812 125.921875 11.484375 79.902344 Z M 11.484375 79.902344 " fill-opacity="1" fill-rule="nonzero"/></g><path fill="#ff751f" d="M 6.195312 74.367188 L 113.773438 138.167969 C 119.460938 139.066406 124.546875 139.871094 130.238281 140.773438 C 197.535156 125.609375 264.832031 110.449219 332.132812 95.289062 C 335.117188 94.617188 338.0625 96.5625 338.617188 99.570312 C 350.539062 164.257812 362.464844 228.949219 374.386719 293.636719 C 374.921875 296.554688 373.003906 299.359375 370.089844 299.910156 C 305.722656 312.105469 241.355469 324.296875 176.988281 336.492188 C 168.398438 334.683594 156.738281 332.230469 148.148438 330.425781 C 119.5625 310.789062 90.980469 291.15625 62.394531 271.523438 C 60.132812 269.96875 58.464844 267.691406 57.667969 265.066406 C 38.773438 202.859375 19.878906 140.65625 0.984375 78.453125 C 0.0429688 75.351562 3.410156 72.710938 6.195312 74.367188 Z M 6.195312 74.367188 " fill-opacity="1" fill-rule="nonzero"/><g clip-path="url(#1236e4f25e)"><path fill="#472f0b" d="M 181.261719 339.792969 C 181.214844 339.792969 181.167969 339.789062 181.125 339.789062 L 154.34375 338.746094 C 152.714844 338.683594 151.339844 337.511719 151.019531 335.917969 L 110.96875 137.714844 C 110.75 136.625 111.054688 135.496094 111.796875 134.664062 C 112.535156 133.832031 113.625 133.40625 114.730469 133.496094 L 138.511719 135.535156 C 140.054688 135.664062 141.332031 136.789062 141.660156 138.300781 L 184.710938 335.503906 C 184.945312 336.574219 184.667969 337.691406 183.96875 338.527344 C 183.296875 339.332031 182.304688 339.792969 181.261719 339.792969 Z M 157.390625 331.796875 L 176.835938 332.550781 L 135.316406 142.351562 L 118.824219 140.9375 Z M 157.390625 331.796875 " fill-opacity="1" fill-rule="nonzero"/></g><path fill="#262626" d="M 121.691406 135.773438 C 120.382812 135.773438 119.101562 135.128906 118.339844 133.945312 C 100.570312 106.335938 25.867188 72.382812 25.117188 72.046875 C 23.109375 71.140625 22.21875 68.78125 23.125 66.777344 C 24.027344 64.773438 26.390625 63.882812 28.390625 64.785156 C 31.550781 66.214844 106 100.054688 125.035156 129.636719 C 126.226562 131.488281 125.691406 133.949219 123.84375 135.140625 C 123.175781 135.570312 122.429688 135.773438 121.691406 135.773438 Z M 121.691406 135.773438 " fill-opacity="1" fill-rule="nonzero"/><path fill="#262626" d="M 132.457031 139.519531 C 131.558594 139.519531 130.65625 139.21875 129.910156 138.601562 C 128.222656 137.195312 127.992188 134.683594 129.394531 132.992188 C 157.621094 99.050781 311.136719 87.148438 317.65625 86.660156 C 319.8125 86.484375 321.761719 88.140625 321.925781 90.332031 C 322.089844 92.527344 320.445312 94.4375 318.253906 94.601562 C 316.691406 94.71875 161.601562 106.714844 135.519531 138.085938 C 134.734375 139.03125 133.597656 139.519531 132.457031 139.519531 Z M 132.457031 139.519531 " fill-opacity="1" fill-rule="nonzero"/><path fill="#472f0b" d="M 138.210938 142.585938 C 138.113281 142.585938 138.011719 142.582031 137.910156 142.570312 L 114.128906 140.535156 C 113.613281 140.488281 113.109375 140.332031 112.660156 140.070312 L 4.425781 77.421875 C 2.738281 76.445312 2.160156 74.285156 3.140625 72.597656 C 4.117188 70.910156 6.277344 70.332031 7.964844 71.308594 L 115.515625 133.5625 L 137.96875 135.488281 L 331.355469 91.84375 C 333.253906 91.410156 335.144531 92.613281 335.578125 94.511719 C 336.007812 96.414062 334.8125 98.304688 332.90625 98.734375 L 138.988281 142.496094 C 138.734375 142.554688 138.472656 142.585938 138.210938 142.585938 Z M 138.210938 142.585938 " fill-opacity="1" fill-rule="nonzero"/><g clip-path="url(#9d79c7b424)"><g clip-path="url(#a0e2ab2924)"><g clip-path="url(#cebbcc6add)"><path fill="#f9e9ff" d="M 277.507812 260.558594 C 278.074219 263.332031 276.289062 266.035156 273.515625 266.605469 L 269.6875 267.390625 C 266.914062 267.957031 264.207031 266.171875 263.640625 263.398438 L 244.484375 169.878906 C 243.917969 167.105469 245.699219 164.402344 248.472656 163.832031 L 252.304688 163.046875 C 255.074219 162.480469 257.78125 164.265625 258.347656 167.039062 L 277.507812 260.558594 " fill-opacity="1" fill-rule="nonzero"/></g></g></g><g clip-path="url(#dc9a4cb5a5)"><g clip-path="url(#79569a1ad4)"><g clip-path="url(#0968865486)"><path fill="#f9e9ff" d="M 291.871094 244.398438 C 292.4375 247.167969 290.65625 249.875 287.882812 250.445312 L 287.589844 250.503906 C 284.820312 251.070312 282.113281 249.28125 281.546875 246.515625 L 267.585938 178.363281 C 267.019531 175.59375 268.804688 172.886719 271.574219 172.320312 L 271.867188 172.257812 C 274.640625 171.691406 277.34375 173.480469 277.910156 176.25 L 291.871094 244.398438 " fill-opacity="1" fill-rule="nonzero"/></g></g></g><g clip-path="url(#4320c82197)"><g clip-path="url(#8b67f822ce)"><g clip-path="url(#7476479d02)"><path fill="#f9e9ff" d="M 303.933594 228.25 C 304.46875 230.855469 302.789062 233.402344 300.179688 233.9375 C 297.574219 234.46875 295.027344 232.789062 294.492188 230.183594 L 285.914062 188.289062 C 285.378906 185.679688 287.058594 183.136719 289.664062 182.601562 C 292.273438 182.066406 294.820312 183.746094 295.351562 186.355469 L 303.933594 228.25 " fill-opacity="1" fill-rule="nonzero"/></g></g></g><g clip-path="url(#1755b4512a)"><g clip-path="url(#f48d9410f8)"><g clip-path="url(#0e59b6c1c4)"><path fill="#f9e9ff" d="M 320.160156 236.914062 C 320.625 239.195312 319.15625 241.421875 316.875 241.890625 C 314.59375 242.359375 312.363281 240.886719 311.898438 238.609375 L 298.601562 173.699219 C 298.132812 171.417969 299.605469 169.191406 301.886719 168.722656 C 304.167969 168.257812 306.394531 169.726562 306.863281 172.007812 L 320.160156 236.914062 " fill-opacity="1" fill-rule="nonzero"/></g></g></g><g clip-path="url(#189a490ceb)"><g clip-path="url(#efa0d17931)"><g clip-path="url(#dc666278e1)"><path fill="#f9e9ff" d="M 329.394531 215.960938 C 329.828125 218.082031 328.460938 220.152344 326.34375 220.585938 C 324.222656 221.019531 322.15625 219.652344 321.722656 217.535156 L 315.917969 189.210938 C 315.484375 187.09375 316.851562 185.023438 318.96875 184.589844 C 321.085938 184.15625 323.15625 185.519531 323.589844 187.640625 L 329.394531 215.960938 " fill-opacity="1" fill-rule="nonzero"/></g></g></g><g clip-path="url(#9ab4e30bb6)"><g clip-path="url(#3b849435b8)"><g clip-path="url(#3e284db7a7)"><path fill="#f9e9ff" d="M 339.933594 208.886719 C 340.296875 210.679688 339.144531 212.429688 337.351562 212.796875 C 335.558594 213.164062 333.808594 212.007812 333.441406 210.21875 L 329.574219 191.332031 C 329.207031 189.542969 330.363281 187.792969 332.152344 187.425781 C 333.945312 187.058594 335.695312 188.210938 336.0625 190.003906 L 339.933594 208.886719 " fill-opacity="1" fill-rule="nonzero"/></g></g></g><g clip-path="url(#bc021dbcbc)"><g clip-path="url(#345c437dac)"><g clip-path="url(#84d654e204)"><path fill="#f9e9ff" d="M 348.203125 202.734375 C 348.503906 204.203125 347.558594 205.632812 346.089844 205.933594 C 344.625 206.234375 343.191406 205.289062 342.890625 203.824219 L 340.773438 193.496094 C 340.472656 192.03125 341.421875 190.597656 342.886719 190.296875 C 344.355469 190 345.785156 190.941406 346.085938 192.410156 L 348.203125 202.734375 " fill-opacity="1" fill-rule="nonzero"/></g></g></g><g clip-path="url(#2b73071d0d)"><g clip-path="url(#94cfa8b6b7)"><g clip-path="url(#694a53d53e)"><path fill="#f9e9ff" d="M 244.078125 254.1875 C 244.644531 256.957031 247.351562 258.746094 250.121094 258.179688 L 250.414062 258.117188 C 253.183594 257.550781 254.96875 254.84375 254.402344 252.074219 L 240.441406 183.921875 C 239.875 181.152344 237.167969 179.367188 234.398438 179.933594 L 234.105469 179.992188 C 231.335938 180.5625 229.550781 183.269531 230.117188 186.039062 L 244.078125 254.1875 " fill-opacity="1" fill-rule="nonzero"/></g></g></g><g clip-path="url(#cd1261deb7)"><g clip-path="url(#a098154575)"><g clip-path="url(#4b85dfa32c)"><path fill="#f9e9ff" d="M 226.636719 244.082031 C 227.167969 246.691406 229.714844 248.371094 232.324219 247.835938 C 234.929688 247.300781 236.609375 244.753906 236.078125 242.148438 L 227.496094 200.253906 C 226.960938 197.648438 224.414062 195.96875 221.808594 196.5 C 219.199219 197.035156 217.519531 199.582031 218.054688 202.1875 L 226.636719 244.082031 " fill-opacity="1" fill-rule="nonzero"/></g></g></g><g clip-path="url(#b7796bd7d0)"><g clip-path="url(#6758982953)"><g clip-path="url(#7ef1a52c7b)"><path fill="#f9e9ff" d="M 215.125 258.429688 C 215.59375 260.710938 217.820312 262.179688 220.101562 261.714844 C 222.382812 261.246094 223.855469 259.019531 223.386719 256.738281 L 210.09375 191.828125 C 209.625 189.550781 207.398438 188.078125 205.113281 188.546875 C 202.832031 189.011719 201.363281 191.242188 201.828125 193.523438 L 215.125 258.429688 " fill-opacity="1" fill-rule="nonzero"/></g></g></g><g clip-path="url(#113b1e3d43)"><g clip-path="url(#8eec3f1675)"><g clip-path="url(#09b71d666f)"><path fill="#f9e9ff" d="M 198.398438 242.796875 C 198.832031 244.914062 200.902344 246.28125 203.019531 245.847656 C 205.136719 245.414062 206.5 243.34375 206.066406 241.226562 L 200.265625 212.902344 C 199.832031 210.785156 197.765625 209.417969 195.644531 209.851562 C 193.527344 210.285156 192.160156 212.355469 192.59375 214.472656 L 198.398438 242.796875 " fill-opacity="1" fill-rule="nonzero"/></g></g></g><g clip-path="url(#1f36d9aa7e)"><g clip-path="url(#2336233e33)"><g clip-path="url(#6b1037cb54)"><path fill="#f9e9ff" d="M 185.921875 240.433594 C 186.289062 242.226562 188.042969 243.382812 189.835938 243.015625 C 191.625 242.648438 192.78125 240.894531 192.417969 239.105469 L 188.546875 220.222656 C 188.179688 218.429688 186.429688 217.273438 184.636719 217.640625 C 182.84375 218.007812 181.6875 219.757812 182.054688 221.550781 L 185.921875 240.433594 " fill-opacity="1" fill-rule="nonzero"/></g></g></g><g clip-path="url(#eee8648d2f)"><g clip-path="url(#a565f4cef1)"><g clip-path="url(#fb37aedd10)"><path fill="#f9e9ff" d="M 175.902344 238.027344 C 176.203125 239.496094 177.632812 240.441406 179.101562 240.140625 C 180.570312 239.839844 181.511719 238.40625 181.210938 236.941406 L 179.097656 226.613281 C 178.796875 225.148438 177.367188 224.203125 175.898438 224.503906 C 174.433594 224.804688 173.484375 226.234375 173.785156 227.703125 L 175.902344 238.027344 " fill-opacity="1" fill-rule="nonzero"/></g></g></g></svg>